<?xml version="1.0" standalone="no"?>
<!DOCTYPE svg PUBLIC "-//W3C//DTD SVG 20010904//EN"
 "http://www.w3.org/TR/2001/REC-SVG-20010904/DTD/svg10.dtd">
<svg version="1.0" xmlns="http://www.w3.org/2000/svg"
 viewBox="0 0 18 18"
 preserveAspectRatio="xMidYMid meet">
<metadata>
Created by potrace 1.16, written by Peter Selinger 2001-2019
</metadata>
<g fill="#000000" stroke="none">
<path d="M4395 4051 c-28 -13 -436 -416 -1325 -1305 l-1285 -1286 -525 524
c-569 569 -544 548 -638 532 -104 -16 -164 -140 -117 -240 8 -17 279 -295 603
-618 503 -502 593 -588 627 -597 55 -15 74 -14 120 8 56 27 2761 2735 2771
2774 10 44 -1 126 -23 155 -24 34 -98 72 -138 72 -16 0 -48 -9 -70 -19z"/>
</g>
</svg>
