<?xml version="1.0" standalone="no"?>
<!DOCTYPE svg PUBLIC "-//W3C//DTD SVG 20010904//EN"
 "http://www.w3.org/TR/2001/REC-SVG-20010904/DTD/svg10.dtd">
<svg version="1.0" xmlns="http://www.w3.org/2000/svg"
 width="16.000000pt" height="16.000000pt" viewBox="0 0 16.000000 16.000000"
 preserveAspectRatio="xMidYMid meet">

<g transform="translate(0.000000,16.000000) scale(0.100000,-0.100000)"
fill="#000000" stroke="none">
<path d="M42 135 c-12 -14 -8 -19 11 -16 4 0 7 -4 7 -10 0 -6 -9 -8 -20 -4
-21 7 -24 -1 -20 -40 3 -31 20 -45 55 -45 39 0 65 26 65 67 0 47 -53 85 -63
46 -4 -17 -5 -17 -6 0 -1 21 -11 21 -29 2z m78 -25 c-6 -3 -8 -14 -4 -23 3 -9
2 -17 -4 -17 -11 0 -24 39 -16 51 2 5 12 5 20 2 11 -4 12 -8 4 -13z m-56 -29
c4 -5 0 -12 -6 -14 -7 -3 3 -6 22 -7 19 -1 27 -4 17 -7 -9 -2 -15 -8 -13 -12
3 -4 -1 -8 -9 -8 -8 0 -12 4 -10 8 3 4 -2 9 -10 13 -8 3 -15 12 -15 21 0 16
15 20 24 6z"/>
</g>
</svg>
