<?xml version="1.0" standalone="no"?>
<!DOCTYPE svg PUBLIC "-//W3C//DTD SVG 20010904//EN"
 "http://www.w3.org/TR/2001/REC-SVG-20010904/DTD/svg10.dtd">
<svg version="1.0" xmlns="http://www.w3.org/2000/svg"
 width="512.000000pt" height="512.000000pt" viewBox="0 0 512.000000 512.000000"
 preserveAspectRatio="xMidYMid meet">
<metadata>
Created by potrace 1.16, written by Peter Selinger 2001-2019
</metadata>
<g transform="translate(0.000000,512.000000) scale(0.100000,-0.100000)"
fill="#000000" stroke="none">
<path d="M1185 5103 c-49 -25 -94 -74 -111 -120 -20 -50 -15 -133 10 -182 9
-16 560 -526 1224 -1131 664 -605 1207 -1105 1207 -1110 0 -5 -543 -505 -1207
-1110 -664 -605 -1215 -1115 -1224 -1131 -22 -43 -29 -128 -14 -173 16 -48 63
-102 111 -127 50 -25 140 -25 194 0 49 23 2631 2374 2660 2423 16 26 20 51 20
120 0 80 -2 89 -30 128 -45 62 -2602 2389 -2650 2411 -50 23 -148 24 -190 2z"/>
</g>
</svg>
