<svg xmlns="http://www.w3.org/2000/svg" xmlns:xlink="http://www.w3.org/1999/xlink"><symbol id="arrow-credit" viewBox="0 0 512.000000 512.000000" preserveAspectRatio="xMidYMid meet">
<metadata>
Created by potrace 1.16, written by Peter Selinger 2001-2019
</metadata>
<g transform="translate(0.000000,512.000000) scale(0.100000,-0.100000)" fill="#000000" stroke="none">
<path d="M1185 5103 c-49 -25 -94 -74 -111 -120 -20 -50 -15 -133 10 -182 9
-16 560 -526 1224 -1131 664 -605 1207 -1105 1207 -1110 0 -5 -543 -505 -1207
-1110 -664 -605 -1215 -1115 -1224 -1131 -22 -43 -29 -128 -14 -173 16 -48 63
-102 111 -127 50 -25 140 -25 194 0 49 23 2631 2374 2660 2423 16 26 20 51 20
120 0 80 -2 89 -30 128 -45 62 -2602 2389 -2650 2411 -50 23 -148 24 -190 2z"/>
</g>
</symbol><symbol id="auto" viewBox="0 0 37 32">
<path d="M27.4405 13.4761C26.2888 13.7483 25.5428 14.7085 25.4949 15.9863L25.4823 16.3417L26.9516 17.6522H27.2389C27.5438 17.6522 27.8563 17.6497 28.1789 17.6497C28.9703 17.6446 29.7894 17.6421 30.611 17.6598C30.6311 17.6598 30.6513 17.6598 30.6715 17.6598C31.483 17.6598 32.1887 17.3044 32.7683 16.6063C33.5446 15.6713 33.5194 14.5422 32.7028 13.5845C32.5339 13.3854 32.36 13.2115 32.1912 13.0452C32.1231 12.9771 32.0551 12.9091 31.9896 12.8436L31.7602 12.6067L31.4326 12.6142C31.3091 12.6167 31.1881 12.6167 31.0672 12.6167C30.4623 12.6167 29.7768 12.6167 29.0837 12.9141C28.4436 13.1838 27.937 13.3577 27.4405 13.4761ZM31.0672 14.1238C31.0898 14.1238 31.1125 14.1238 31.1327 14.1238C31.2839 14.2725 31.425 14.4162 31.551 14.5649C31.9719 15.0589 31.8131 15.3865 31.604 15.641C31.3015 16.004 31.0218 16.1602 30.6437 16.1476C30.1599 16.1375 29.6785 16.135 29.2047 16.135C28.8569 16.135 28.5116 16.1375 28.1714 16.1375C27.9521 16.1375 27.7379 16.1401 27.5262 16.1401L27.0499 15.7141C27.1255 15.4016 27.317 15.0589 27.7883 14.948C28.3755 14.8094 28.9577 14.6103 29.681 14.3003C30.0868 14.1264 30.5404 14.1264 31.0672 14.1238ZM8.64447 13.4257C8.29667 13.3501 7.94384 13.2191 7.57084 13.0805C6.67363 12.7478 5.65545 12.3723 4.46085 12.6923L4.26427 12.7453L4.12061 12.8889C3.38722 13.6223 2.66139 14.5069 2.82268 15.5125C2.99154 16.566 4.05761 17.2414 5.18416 17.8135L5.3757 17.9118L9.32241 17.5791L9.50135 17.4355C9.71809 17.2641 9.89703 17.0826 10.0533 16.8785V16.876C10.706 16.0216 10.5876 14.7942 9.78614 14.0835C9.48371 13.8164 9.11323 13.5291 8.64447 13.4257ZM8.85113 15.9586C8.8108 16.0115 8.76796 16.0594 8.71755 16.1098L5.67813 16.3669C4.5541 15.7721 4.33987 15.4293 4.31467 15.2756C4.29451 15.142 4.36508 14.8194 5.03798 14.1138C5.69829 14.0029 6.32583 14.2347 7.04411 14.4994C7.44987 14.6506 7.87075 14.8043 8.31935 14.9026C8.46553 14.9354 8.69487 15.1395 8.78056 15.2151C8.99478 15.4041 9.02502 15.7318 8.85113 15.9586ZM29.3332 9.44878C29.497 8.61458 29.1845 8.08028 28.8241 7.62412C28.0983 6.70927 27.5212 5.77677 27.1053 4.85184C26.3266 3.11035 25.0841 2.26102 23.3123 2.26102C23.3048 2.26102 23.2997 2.26102 23.2922 2.26102C20.5375 2.2711 17.735 2.2711 15.0232 2.26858L11.4772 2.26606L11.2605 2.46012C11.1899 2.52565 11.1194 2.60126 11.0513 2.67686C11.0362 2.6945 11.0211 2.71215 11.0059 2.72979C10.0558 2.97425 9.65257 3.71017 9.3577 4.25202C9.30729 4.34527 9.25689 4.436 9.20396 4.52673L9.18632 4.55697C8.5361 5.65832 7.86067 6.79748 7.13735 7.86354C6.79964 8.36003 6.69631 8.84392 6.80216 9.43618L6.91305 10.0612H29.2148L29.3332 9.44878ZM8.49829 8.54653C9.20396 7.49307 9.85671 6.39171 10.4868 5.32817L10.5044 5.29793C10.5674 5.19207 10.6254 5.08622 10.6833 4.97785C10.9707 4.45364 11.1093 4.24698 11.4319 4.18397C11.7368 4.12097 11.946 3.93699 12.0947 3.77821H15.0232C17.735 3.78073 20.5375 3.78073 23.2997 3.77317C23.3048 3.77317 23.3098 3.77317 23.3149 3.77317C24.4742 3.77317 25.195 4.27974 25.7267 5.4693C26.1905 6.50261 26.8281 7.53843 27.627 8.54653H8.49829ZM35.5885 22.3903C35.586 23.1262 35.5809 23.8848 35.591 24.6308C35.5935 24.9584 35.5608 25.2508 35.4877 25.5179C35.2609 26.3597 34.472 26.9494 33.5698 26.9494H30.3111C29.429 26.9494 28.6906 26.3194 28.557 25.4473C28.494 25.034 28.5091 24.6434 28.5242 24.2653L28.5267 24.1671C28.5293 24.1267 28.5091 24.099 28.494 24.0814C28.4789 24.0637 28.4486 24.0436 28.4058 24.041C27.9798 24.0259 27.5942 24.0058 27.2666 23.9856C26.9516 23.968 26.6819 23.9528 26.508 23.9528H23.2342C22.8158 23.9528 22.4781 23.6151 22.4781 23.1968C22.4781 22.7784 22.8158 22.4407 23.2342 22.4407H26.508C26.7273 22.4407 27.0045 22.4558 27.3548 22.476C27.6724 22.4936 28.0429 22.5163 28.4562 22.5289C28.8947 22.544 29.3005 22.728 29.6004 23.0506C29.8978 23.3707 30.054 23.7865 30.0364 24.225L30.0313 24.3258C30.0187 24.6459 30.0061 24.9509 30.0464 25.218C30.0666 25.3415 30.1775 25.4373 30.306 25.4373H33.5647C33.7815 25.4373 33.9755 25.3062 34.0234 25.1248C34.0587 24.9912 34.0763 24.8349 34.0738 24.6459C34.0663 23.8898 34.0688 23.1237 34.0713 22.3827C34.0763 21.3923 34.0814 20.3665 34.0562 19.366C34.0184 17.7329 33.9327 16.0493 33.7991 14.2171C33.7815 13.9802 33.6983 13.713 33.6101 13.4308C33.5395 13.2065 33.4664 12.9746 33.416 12.7226C33.3177 12.2488 33.0884 11.8103 32.8212 11.3012C32.6398 10.9584 32.4533 10.6005 32.292 10.2023L31.977 9.4261L34.1822 8.78343C34.3813 8.58433 34.5098 8.4306 34.5577 8.1937L34.094 7.54347H30.4774L30.2556 7.18559C29.9986 6.76975 29.7516 6.35139 29.5046 5.93303C28.9552 5.00306 28.436 4.12601 27.8286 3.31197C26.9289 2.10981 25.7393 1.50243 24.2826 1.51503C21.6716 1.53015 19.0153 1.52763 16.4446 1.52511C14.8166 1.52259 13.1885 1.52259 11.5604 1.52511C10.5926 1.52763 9.74582 1.8855 8.96958 2.62142C8.20594 3.34725 7.66409 4.25958 7.09199 5.22736C6.68623 5.91287 6.26787 6.62106 5.7487 7.29397L5.52187 7.58884H1.97588L1.58524 8.1937C1.73645 8.73807 2.12961 8.89685 3.03186 9.14383C3.14023 9.17407 3.24861 9.20432 3.35698 9.23708L4.24411 9.49667L3.81314 10.3132C3.75014 10.4342 3.69217 10.5451 3.63924 10.6484C3.52331 10.8727 3.4225 11.0668 3.31413 11.2583C2.76472 12.211 2.49757 13.2846 2.32871 14.1138C2.22538 14.6128 2.2279 15.2101 2.33123 15.9939C2.45725 16.9541 2.22034 18.499 2.15482 18.8896L2.25563 23.542L2.24807 23.595C2.24807 23.6 2.18758 24.1141 2.21026 24.6635C2.22538 25.0743 2.56562 25.3995 2.98146 25.3995C3.31413 25.3995 3.74762 25.407 4.20378 25.4146C4.87669 25.4247 5.57228 25.4373 6.08137 25.4297L6.09145 24.6257C6.09145 23.4185 7.07183 22.4407 8.27651 22.4407H12.7777C13.196 22.4407 13.5338 22.7784 13.5338 23.1968C13.5338 23.6151 13.196 23.9528 12.7777 23.9528H8.27903C7.90855 23.9528 7.60612 24.2553 7.60612 24.6257L7.60864 25.4146C7.61116 26.2463 6.93825 26.9318 6.10909 26.9444C5.5748 26.9519 4.86661 26.9419 4.18362 26.9293C3.73501 26.9217 3.30909 26.9141 2.98398 26.9141C1.75158 26.9141 0.748515 25.9539 0.70063 24.7266C0.677948 24.162 0.725833 23.6428 0.743474 23.474L0.640144 18.7788L0.652745 18.7057C0.733393 18.2394 0.922412 16.881 0.831683 16.193C0.705671 15.2353 0.710711 14.4767 0.846805 13.8088C1.04086 12.8688 1.34581 11.6439 2.00108 10.5048C2.0162 10.4796 2.0288 10.4544 2.04392 10.4292C1.18704 10.1393 0.226823 9.60252 0.0352835 8.13573L0 7.86102L1.15428 6.07668H4.76832C5.13879 5.55751 5.46895 5.00054 5.78902 4.45868C6.38884 3.44554 7.00882 2.39712 7.92619 1.52511C8.98218 0.524568 10.202 0.0154765 11.5554 0.0129562C13.186 0.010436 14.814 0.010436 16.4446 0.0129562C19.0128 0.0154765 21.6666 0.0179967 24.2751 0.00035494C26.2081 -0.0198071 27.8563 0.819437 29.0434 2.40468C29.7012 3.28424 30.2657 4.23942 30.8101 5.16183C30.9815 5.44914 31.1503 5.73897 31.3267 6.0288H34.8778L36.0951 7.73249V7.97443C36.0951 9.03294 35.5204 9.59496 35.1777 9.93015L34.9786 10.1267L34.0612 10.3939C34.0965 10.4619 34.1318 10.53 34.1671 10.598C34.4594 11.1575 34.7644 11.7346 34.903 12.4151C34.9408 12.5915 34.9987 12.7806 35.0592 12.9771C35.1651 13.3123 35.2835 13.6954 35.3138 14.1037C35.4499 15.9586 35.5356 17.6673 35.5734 19.3257C35.5986 20.3514 35.5935 21.3872 35.5885 22.3903ZM22.7629 25.0013H20.9408V18.62C20.9408 17.9849 20.4241 17.4707 19.7915 17.4707H16.3312C15.6961 17.4707 15.182 17.9874 15.182 18.62V25.0013H13.3599C12.8936 25.0013 12.4753 25.281 12.2963 25.712C12.1174 26.1429 12.2157 26.6344 12.5458 26.9645L17.2461 31.6648C17.4704 31.8891 17.7653 32 18.0601 32C18.355 32 18.6499 31.8891 18.8742 31.6648L23.5744 26.9645C23.9046 26.6344 24.0029 26.1429 23.8239 25.712C23.6475 25.281 23.2292 25.0013 22.7629 25.0013ZM18.0626 30.3417L14.2344 26.5134H15.5449C16.18 26.5134 16.6942 25.9968 16.6942 25.3642V18.9804H19.4286V25.3617C19.4286 25.9968 19.9453 26.5109 20.5779 26.5109H21.8884L18.0626 30.3417Z" fill="#4DA82F"/>
</symbol><symbol id="check-agree" viewBox="0 0 18 18" preserveAspectRatio="xMidYMid meet">
<metadata>
Created by potrace 1.16, written by Peter Selinger 2001-2019
</metadata>
<g fill="#000000" stroke="none">
<path d="M4395 4051 c-28 -13 -436 -416 -1325 -1305 l-1285 -1286 -525 524
c-569 569 -544 548 -638 532 -104 -16 -164 -140 -117 -240 8 -17 279 -295 603
-618 503 -502 593 -588 627 -597 55 -15 74 -14 120 8 56 27 2761 2735 2771
2774 10 44 -1 126 -23 155 -24 34 -98 72 -138 72 -16 0 -48 -9 -70 -19z"/>
</g>
</symbol><symbol id="check" viewBox="0 0 36 30">
<path d="M12.3801 29.0293L12.3274 29.0247C10.9379 28.8849 10.0712 28.0113 9.30997 27.2432L9.28475 27.2157C7.38395 25.3011 5.44417 23.3613 3.5663 21.488C2.79131 20.713 2.01631 19.938 1.24132 19.1631C-0.409559 17.5122 -0.414145 15.3798 1.22985 13.7358L1.37889 13.5868C1.5692 13.3965 1.75951 13.2061 1.94982 13.0181C3.50898 11.4796 5.67575 11.4796 7.22115 13.0181C7.66597 13.4607 8.2369 14.0316 8.8491 14.6415C10.1308 15.9209 11.5845 17.3723 12.4512 18.2253C12.5131 18.2872 12.5842 18.2963 12.6301 18.2986C12.6782 18.2986 12.747 18.2849 12.8089 18.223C15.3334 15.6504 23.9684 6.94887 28.6802 2.23928C30.3701 0.54943 32.4704 0.547137 34.1579 2.2347L34.3964 2.47316C34.5959 2.67035 34.7931 2.86524 34.9857 3.06701C36.3133 4.45192 36.3408 6.56825 35.0499 7.99213C34.9582 8.09301 34.8596 8.19161 34.7633 8.28791L34.6945 8.3567L30.2027 12.8439C25.4358 17.6062 20.6689 22.3685 15.9043 27.1354L15.7598 27.2822C15.0536 27.9929 14.2557 28.7977 13.0038 29.0087L12.896 29.0202L12.3801 29.0293ZM4.58663 13.4675C4.06386 13.4675 3.54108 13.6991 3.07333 14.16C2.88531 14.3457 2.6973 14.5337 2.50928 14.7217L2.36024 14.8708C1.34679 15.8865 1.34908 17.0077 2.37171 18.0281C3.1467 18.8031 3.9217 19.5781 4.69669 20.3508C6.57456 22.2263 8.51663 24.1661 10.4197 26.083L10.4449 26.1105C11.0892 26.7594 11.6464 27.3211 12.4375 27.4197L12.7814 27.4083C13.4968 27.2707 14.015 26.7479 14.6157 26.1449L14.7647 25.9958C19.5293 21.2289 24.2962 16.4666 29.0632 11.7043L33.6283 7.14376C33.7062 7.0658 33.7842 6.99014 33.8576 6.90759C34.5752 6.11655 34.5615 4.9403 33.8232 4.17218C33.6397 3.98187 33.4517 3.79615 33.2637 3.60814L33.0184 3.36509C31.9545 2.30119 30.8745 2.30348 29.8083 3.36738C25.0988 8.07467 16.4683 16.7693 13.9485 19.3396C13.6 19.695 13.1345 19.8922 12.6392 19.8968C12.6347 19.8968 12.6278 19.8968 12.6232 19.8968C12.1325 19.8968 11.6716 19.7088 11.3208 19.3625C10.4518 18.5073 8.99585 17.0536 7.71183 15.7696C7.10193 15.1597 6.531 14.591 6.08618 14.1485C5.62531 13.6968 5.10712 13.4675 4.58663 13.4675Z" fill="#4DA82F"/>
</symbol><symbol id="circle-agree" viewBox="0 0 16 17">
<circle cx="8" cy="8.5" r="7.5" stroke="#DADADA"/>
</symbol><symbol id="gift" viewBox="0 0 32 36">
<path d="M30.988 10.5211C24.6566 10.5236 18.3252 10.5236 11.9938 10.5236C8.32336 10.5236 4.65288 10.5211 0.982413 10.5211C0.402345 10.5211 0 10.9259 0 11.5085C0 13.3622 0 15.2135 0 17.0672C0 17.1462 0.00246837 17.2277 0.019747 17.3067C0.113545 17.7534 0.478865 18.0496 0.947856 18.057C1.25393 18.062 1.55754 18.057 1.87596 18.057C1.87843 18.1212 1.88337 18.1706 1.88337 18.22C1.88337 19.2986 1.88584 20.3798 1.88584 21.4585C1.88584 25.9633 1.88337 30.4656 1.88584 34.9703C1.88584 35.0888 1.90065 35.2147 1.94261 35.3233C2.09071 35.7257 2.42147 35.938 2.88059 35.938C5.80808 35.938 8.73558 35.938 11.6606 35.938C17.4835 35.938 23.3089 35.938 29.1317 35.9355C29.2305 35.9355 29.3342 35.9281 29.4304 35.9034C29.8624 35.7898 30.1142 35.4221 30.1166 34.9259C30.1166 29.3721 30.1166 23.8182 30.1166 18.2669C30.1166 18.2027 30.1166 18.141 30.1166 18.0595C30.403 18.0595 30.6671 18.0645 30.9337 18.057C31.062 18.0546 31.1978 18.0546 31.3212 18.0176C31.7532 17.8917 32 17.5436 32 17.082C32 15.2234 32 13.3671 32 11.5085C32 10.916 31.5927 10.5211 30.988 10.5211ZM1.89818 16.1638C1.89818 14.9123 1.89818 13.6707 1.89818 12.4193C6.28201 12.4193 10.6584 12.4193 15.0472 12.4193C15.0472 13.6633 15.0472 14.9049 15.0472 16.1638C10.656 16.1638 6.28201 16.1638 1.89818 16.1638ZM15.0472 34.0472C11.2854 34.0472 7.53595 34.0472 3.77661 34.0472C3.77661 28.7204 3.77661 23.4011 3.77661 18.0694C7.53101 18.0694 11.2829 18.0694 15.0472 18.0694C15.0472 23.3912 15.0472 28.7106 15.0472 34.0472ZM28.2234 34.0398C24.4764 34.0398 20.7294 34.0398 16.9627 34.0398C16.9627 28.7254 16.9627 23.4035 16.9627 18.0645C20.7171 18.0645 24.4641 18.0645 28.2234 18.0645C28.2234 23.3912 28.2234 28.7106 28.2234 34.0398ZM30.1043 16.1712C30.0426 16.1712 29.9883 16.1712 29.9364 16.1712C25.6637 16.1712 21.3934 16.1712 17.1206 16.1737C16.9849 16.1737 16.9429 16.1416 16.9429 16.0009C16.9479 14.8654 16.9454 13.7325 16.9454 12.597C16.9454 12.5427 16.9454 12.4884 16.9454 12.4193C21.344 12.4193 25.718 12.4193 30.1043 12.4193C30.1043 13.6683 30.1043 14.9099 30.1043 16.1712ZM7.22493 8.75622C7.83709 9.14128 8.54057 9.29432 9.23912 9.43255C10.6609 9.71641 12.1024 9.82749 13.5489 9.86699C15.5162 9.92129 17.486 9.9361 19.4508 9.82009C20.7442 9.74357 22.0327 9.62262 23.2965 9.31407C23.8494 9.17831 24.3925 9.0154 24.8738 8.69944C26.4857 7.64298 27.2879 5.66088 26.8732 3.77751C26.3301 1.30666 23.958 -0.297779 21.4724 0.131718C20.2752 0.339061 19.32 0.941344 18.5943 1.92129C17.8661 2.90617 17.2712 3.96757 16.7208 5.05859C16.4764 5.54239 16.2493 6.0336 15.9975 6.55196C15.8667 6.27303 15.7482 6.01879 15.6297 5.76702C15.0571 4.57232 14.4474 3.39491 13.6847 2.30636C13.3119 1.77565 12.917 1.25976 12.3764 0.884572C10.5646 -0.376767 8.01481 -0.15955 6.45233 1.39799C5.35637 2.48901 4.87751 3.817 5.06757 5.3548C5.24776 6.82101 5.97346 7.96634 7.22493 8.75622ZM17.95 6.86051C18.5177 5.66828 19.1102 4.49087 19.8507 3.39491C19.9445 3.25668 20.0457 3.12832 20.1444 2.99256C21.0898 1.67198 23.1904 1.58806 24.353 2.87161C25.5032 4.14036 25.2761 6.13974 23.8741 7.09747C23.5779 7.29988 23.2397 7.39367 22.8991 7.4776C22.05 7.68741 21.1811 7.79355 20.3123 7.85773C19.4113 7.92437 18.5079 7.95893 17.6069 8.00583C17.5575 8.0083 17.5082 8.00583 17.4267 8.00583C17.6069 7.60595 17.7748 7.23076 17.95 6.86051ZM9.89571 1.95831C10.8164 2.01015 11.5076 2.45939 12.0284 3.21719C12.5887 4.03422 13.0774 4.89321 13.5168 5.77689C13.8624 6.46803 14.1808 7.17152 14.5091 7.87007C14.5264 7.90956 14.5412 7.94906 14.5659 8.01077C14.129 7.99349 13.7143 7.98115 13.2996 7.9614C12.016 7.90216 10.735 7.80836 9.47115 7.55659C9.1626 7.49488 8.84912 7.42576 8.55785 7.30728C7.59272 6.90987 7.07436 6.14715 6.93613 5.13758C6.6967 3.3801 8.12095 1.85711 9.89571 1.95831Z" fill="#4DA82F"/>
</symbol><symbol id="mark-add-servis" viewBox="0 0 7 10">
<path d="M1 1L5.0004 5.0004L1 9" stroke-width="2" stroke-miterlimit="10"/>
</symbol><symbol id="mark-address" viewBox="0 0 14 16">
<path d="M12.692 3.94182C12.1902 2.43487 11.2348 1.31787 9.85059 0.620329C9.24781 0.315834 8.57978 0.126301 7.81078 0.0424089C7.03245 -0.0430363 6.32558 0.000463068 5.65134 0.174461C4.43025 0.491385 3.39093 1.12057 2.56134 2.04959C1.47074 3.26758 0.947198 4.6549 0.96118 6.30787C0.96584 6.35603 0.967394 6.41196 0.970501 6.471C0.978269 6.62324 0.98759 6.81122 1.014 6.99765C1.08546 7.53052 1.2346 8.08669 1.46919 8.69723C1.84204 9.67286 2.37491 10.6376 3.14392 11.7344C3.93001 12.8561 4.80621 13.8923 5.48201 14.6722C5.79738 15.0357 6.09566 15.3589 6.39394 15.6618C6.61454 15.8855 6.89108 16.0005 7.17382 16.0005C7.37268 16.0005 7.57464 15.943 7.76262 15.8265C7.92885 15.7255 8.09197 15.5826 8.24888 15.4023C9.32083 14.175 10.2141 12.9959 10.9816 11.7997C11.6496 10.7572 12.1436 9.79714 12.4947 8.86191C12.7899 8.07426 12.9608 7.35186 13.0198 6.65121C13.0975 5.73927 12.9872 4.82734 12.692 3.94182ZM11.9292 6.42128C11.8951 6.96347 11.7863 7.51187 11.5968 8.09911C11.3296 8.9225 10.9396 9.74743 10.3695 10.6935C9.71232 11.7841 8.90137 12.8996 7.81854 14.2046C7.65853 14.3956 7.49385 14.5805 7.32296 14.7685C7.28878 14.8058 7.24373 14.8431 7.18936 14.8804C7.18314 14.885 7.17693 14.8881 7.17382 14.8912C7.16916 14.8881 7.1645 14.885 7.15984 14.8804C7.09459 14.826 7.0309 14.7623 6.96875 14.6939C6.004 13.6018 4.98953 12.4211 4.1009 11.1782C3.3785 10.1684 2.84253 9.19592 2.46191 8.20786C2.24286 7.63926 2.11547 7.10018 2.07352 6.5611C1.98497 5.43633 2.25529 4.38613 2.87515 3.44002C3.54318 2.41934 4.45977 1.71092 5.59697 1.33341C6.05993 1.17961 6.56638 1.10348 7.13654 1.10038C7.9071 1.11746 8.57202 1.24952 9.16858 1.5043C9.98109 1.85229 10.6476 2.42711 11.1494 3.2132C11.53 3.81132 11.7692 4.49643 11.8795 5.30583C11.9339 5.71131 11.9494 6.07484 11.9292 6.42128ZM7.0107 2.81239C6.16712 2.80773 5.3251 3.16194 4.70368 3.78802C4.08537 4.40944 3.75135 5.23748 3.76378 6.12145C3.7731 6.96036 4.1444 7.79151 4.77825 8.40516C5.3919 8.99551 6.17955 9.31399 6.98429 9.29224C7.01536 9.29224 7.04488 9.29379 7.07439 9.29379C7.86981 9.29379 8.65902 8.96599 9.25402 8.38497C9.89409 7.76044 10.2436 6.92463 10.2374 6.03134C10.225 4.26806 8.77708 2.82326 7.0107 2.81239ZM7.04798 8.16747H7.04643C6.75902 8.16747 6.47472 8.10844 6.20907 7.99658C5.94341 7.88473 5.6995 7.72316 5.49288 7.51498C5.09517 7.11572 4.87612 6.59994 4.87923 6.06552C4.88544 4.6782 5.97448 3.92784 6.99516 3.92473H7.00138C7.56687 3.92473 8.09974 4.14378 8.50055 4.54459C8.89982 4.9423 9.11887 5.47051 9.11887 6.02979C9.11731 6.78326 8.78019 7.27573 8.49589 7.55848C8.10284 7.94842 7.5793 8.16902 7.04798 8.16747Z" fill="#4DA82F"/>
</symbol><symbol id="mark-opt" viewBox="0 0 14 9">
<path d="M13 1.49976L6.9994 7.50035L1 1.49976" stroke="#4DA82F" stroke-width="2" stroke-miterlimit="10"/>
</symbol><symbol id="mark-regime" viewBox="0 0 17 16">
<path d="M7.9935 6.51611e-05C3.57088 0.0176597 0.0311839 3.58295 0.0439799 8.00397C0.0567759 12.449 3.64926 16.0239 8.07508 15.9999C12.4737 15.9759 16.063 12.361 16.039 7.97998C16.015 3.53017 12.4385 -0.0175294 7.9935 6.51611e-05ZM7.93752 14.9794C4.09072 14.9026 0.998882 11.734 1.05646 7.9256C1.11405 4.0468 4.28426 0.951769 8.13106 1.01735C11.9955 1.08293 15.0937 4.27713 15.0185 8.11914C14.9433 11.9403 11.7299 15.0546 7.93752 14.9794ZM11.7715 10.1745C11.5748 10.5088 11.2677 10.4528 10.9686 10.2785C9.95769 9.69304 8.93241 9.12842 7.94072 8.51101C7.74078 8.38625 7.56963 8.07275 7.54724 7.83123C7.53285 7.68407 7.52485 7.53532 7.52005 7.38816C7.50725 6.9435 7.52805 6.49564 7.52805 6.04938C7.52805 5.71828 7.51845 5.38719 7.52325 5.05609C7.52485 4.94572 7.52805 4.83536 7.53285 4.72499C7.55524 4.29953 7.3473 3.65013 8.04949 3.66932C8.72447 3.68852 8.53413 4.33152 8.54533 4.76018C8.56612 5.54554 8.58212 6.33409 8.54053 7.11945C8.51654 7.57211 8.67969 7.80403 9.06997 8.01037C9.88251 8.43744 10.6631 8.93008 11.4628 9.38274C11.7955 9.56988 11.9795 9.82101 11.7715 10.1745Z" fill="#4DA82F"/>
</symbol><symbol id="models-arrow" viewBox="0 0 24 24">
<circle cx="12" cy="12" r="12" fill="#4DA82F"/>
</symbol><symbol id="phone" viewBox="0 0 16 16">
<path d="M12.5141 9.79833C11.927 9.25005 11.1585 9.26001 10.5315 9.76666C10.3673 9.89875 10.2221 10.0544 10.0715 10.2027C9.21582 11.0496 9.20675 11.0622 8.22408 10.3421C6.8939 9.36767 5.77331 8.20237 4.96667 6.67064C5.35865 6.2997 5.7597 5.95409 6.12083 5.57048C6.75688 4.89283 6.76505 4.05323 6.12718 3.3792C5.48386 2.69884 4.8224 2.03476 4.13735 1.39601C3.45774 0.762695 2.62297 0.783504 1.93882 1.41592C1.59493 1.73348 1.28916 2.09176 0.939823 2.40389C0.100519 3.15392 -0.114524 4.09847 0.0524291 5.15882C0.115944 5.55872 0.207587 5.96133 0.345505 6.34132C1.59584 9.79471 3.87784 12.4121 6.96376 14.3564C8.15784 15.1082 9.4227 15.7162 10.8382 15.9388C11.6884 16.0727 12.5186 16.0193 13.1928 15.4204C13.7109 14.9599 14.1981 14.4586 14.6527 13.9357C15.1826 13.3259 15.1744 12.5017 14.6273 11.9145C13.9468 11.1862 13.2418 10.4787 12.5141 9.79833ZM13.8542 13.4833C13.4731 13.8905 13.0821 14.2904 12.6774 14.6749C12.1457 15.1806 11.486 15.1444 10.8382 15.0223C9.33831 14.74 8.02265 14.028 6.79318 13.1667C4.25893 11.3907 2.33987 9.11072 1.2574 6.18751C1.06595 5.67091 0.982469 5.11449 0.849088 4.57708C0.885382 3.99714 1.07683 3.53029 1.48968 3.14216C1.84174 2.81102 2.16838 2.45456 2.52044 2.12342C2.91332 1.75429 3.19823 1.74434 3.58295 2.11619C4.22355 2.73412 4.85234 3.36473 5.47025 4.00619C5.78329 4.33099 5.77059 4.62412 5.4512 4.95978C5.10822 5.32077 4.76161 5.68086 4.38778 6.00837C4.00124 6.34765 3.9831 6.71045 4.19905 7.1393C4.95397 8.64026 6.07818 9.82999 7.39022 10.8478C7.86386 11.2151 8.40464 11.4974 8.92093 11.8078C9.263 12.014 9.58148 11.9652 9.86549 11.6802C10.2384 11.3056 10.6086 10.9292 10.9915 10.5646C11.3681 10.2064 11.6439 10.2027 12.0105 10.5601C12.6266 11.1609 13.2363 11.7679 13.8379 12.3832C14.2208 12.7767 14.2253 13.0861 13.8542 13.4833ZM15.9602 6.84345C16.0282 7.15739 16.0555 7.48038 15.6453 7.56C15.2525 7.6369 15.1463 7.36729 15.0674 7.03344C14.287 3.73657 12.24 1.70091 8.92456 0.946357C8.62604 0.878502 8.37379 0.755457 8.43822 0.424323C8.47179 0.251518 8.67594 0.110378 8.76668 0C9.90178 0.180948 10.8572 0.504844 11.7374 1.02145C13.993 2.34599 15.4085 4.28484 15.9602 6.84345ZM8.30211 3.33668C8.34204 3.15302 8.55708 3.00735 8.68955 2.84993C9.19223 3.01097 9.59237 3.10326 9.96167 3.2652C11.6076 3.98447 12.6347 5.22939 13.0567 6.97102C13.1338 7.28858 13.1419 7.61157 12.7527 7.70295C12.3671 7.79342 12.2482 7.52019 12.1647 7.18815C11.7138 5.3841 10.5823 4.25499 8.7567 3.84062C8.47179 3.77548 8.23678 3.63705 8.30211 3.33668Z"/>
</symbol></svg>